<svg xmlns="http://www.w3.org/2000/svg" width="246.462" height="46" viewBox="0 0 246.462 46"><defs><style>.a,.b{fill:#28286e;}.a{fill-rule:evenodd;}</style></defs><g transform="translate(0)"><path class="a" d="M97.746,34.414c0,3.549-1.993,5.586-5.913,5.586H82.457V35.794h8.265c1.209,0,1.8-.427,1.8-1.511,0-.887-.653-1.446-2.091-2.464l-4.9-3.812C83.045,26.1,82,24.327,82,22.224,82,18.643,84.091,17,88.207,17h9.147v4.206H89.122c-1.274,0-1.895.427-1.895,1.544,0,.854.653,1.413,2.123,2.4l4.868,3.417c2.483,1.709,3.528,3.779,3.528,5.849" transform="translate(-25.861 -5.152)"/><path class="a" d="M125.115,21.206h-5.925V40h-5.266V21.206H108V17h17.115Z" transform="translate(-34.061 -5.152)"/><path class="a" d="M146.812,31.72l-3.142-9.1-3.175,9.1Zm1.347,3.844h-9.041L137.579,40H132l8.945-23h5.387l8.945,23H149.7Z" transform="translate(-41.631 -5.152)"/><path class="a" d="M175.512,27.843c2.875,0,3.724-1.019,3.724-3.45s-.849-3.45-3.724-3.45h-2.287v6.9ZM185.115,40h-5.259l-1.013-4.4c-.653-3.056-1.241-3.877-3.528-3.91h-2.091V40H168V17h9.374c4.866,0,7.088,2.168,7.088,6.9,0,3.187-1.241,5.126-3.757,5.914,1.8.854,2.678,2.563,3.4,5.783Z" transform="translate(-52.984 -5.152)"/><path class="a" d="M203.091,28.139,211.2,17h6.077l-8.527,11.139L217.854,40h-6.077ZM198,40h5.091V17H198Z" transform="translate(-62.446 -5.152)"/><path class="a" d="M261.808,17l-6.832,23h-3.193l-5.395-18.4-5.4,18.4h-3.225L231,17h3.129l5.332,19.418L245.111,17h2.554l5.651,19.418L258.679,17Z" transform="translate(-72.853 -5.152)"/><path class="a" d="M288.9,31.819l-4.277-11.533-4.31,11.533Zm.81,2.2H279.508L277.272,40H274l9.04-23h3.143l9.04,23h-3.272Z" transform="translate(-86.415 -5.152)"/><path class="a" d="M316.089,28.27c3.594,0,4.933-1.413,4.933-4.5,0-3.023-1.339-4.468-4.933-4.468h-4.084v8.97ZM324.746,40h-3.038l-.817-3.943c-.817-4.107-1.829-5.487-4.9-5.553h-3.985V40H309V17h8.1c4.8,0,6.926,2.136,6.926,6.506,0,3.286-1.339,5.29-4.149,5.947,2.222.854,3.234,2.793,4.018,6.6Z" transform="translate(-97.453 -5.152)"/><path class="b" d="M341.986,19.431v7h10.06V28.7h-10.06v4.929c0,2.727,1.169,3.943,3.83,3.943h7.562V40h-8.016C340.623,40,339,38.423,339,33.889V17h14.377v2.431Z" transform="translate(-106.915 -5.152)"/><path class="a" d="M21.876,25.95,18,30.014,18,30.021a.059.059,0,0,1-.033.01.063.063,0,0,1-.061-.064.064.064,0,0,1,0-.021h0l1.473-5.769a1.24,1.24,0,0,0-.28-1.212L15.226,18.9l-.006-.008a.067.067,0,0,1-.01-.035.063.063,0,0,1,.061-.064.058.058,0,0,1,.02,0h0l5.495,1.547a1.1,1.1,0,0,0,1.155-.294l3.872-4.065.008-.007a.058.058,0,0,1,.033-.01.063.063,0,0,1,.061.064.069.069,0,0,1,0,.021h0l-1.473,5.769a1.241,1.241,0,0,0,.28,1.212L28.589,27.1l.006.008a.066.066,0,0,1,.01.035.063.063,0,0,1-.061.064.061.061,0,0,1-.02,0h0L23.03,25.656a1.1,1.1,0,0,0-1.155.294m21.773-3.373L34.4,12.868a1.1,1.1,0,0,0-1.155-.294l-6.081,1.712h0a.06.06,0,0,1-.018,0,.063.063,0,0,1-.061-.064.064.064,0,0,1,.028-.054h0a29.276,29.276,0,0,0,4.077-3.828.62.62,0,0,0,0-.847L22.311.175a.551.551,0,0,0-.807,0L12.257,9.884a1.241,1.241,0,0,0-.28,1.212l1.631,6.384s0,0,0,0a.065.065,0,0,1,0,.019.063.063,0,0,1-.061.064.06.06,0,0,1-.051-.03s0,0,0,0a29.87,29.87,0,0,0-3.646-4.28.552.552,0,0,0-.807,0L.167,22.576a.62.62,0,0,0,0,.847l9.248,9.709a1.1,1.1,0,0,0,1.155.294l6.081-1.712h0l.018,0a.063.063,0,0,1,.061.064.065.065,0,0,1-.028.054h0a29.255,29.255,0,0,0-4.077,3.828.62.62,0,0,0,0,.847L21.5,45.825a.551.551,0,0,0,.807,0l9.248-9.709a1.24,1.24,0,0,0,.28-1.212l-1.631-6.384s0,0,0,0a.068.068,0,0,1,0-.019.063.063,0,0,1,.061-.064.06.06,0,0,1,.051.03h0a29.829,29.829,0,0,0,3.646,4.28.551.551,0,0,0,.807,0l8.876-9.319a.621.621,0,0,0,0-.847" transform="translate(0 0)"/></g></svg>