<svg xmlns="http://www.w3.org/2000/svg" width="32" height="26.835" viewBox="0 0 32 26.835"><defs><style>.a{fill:#fff;}</style></defs><path class="a" d="M31.375,56.726h-2.5a.625.625,0,0,0-.491.238H26.258A13.323,13.323,0,0,0,13.375,40.082H.625a.621.621,0,1,0,0,1.243H7.714a13.383,13.383,0,0,0-3.8,2.652,13.245,13.245,0,0,0,0,18.807,13.32,13.32,0,0,0,9.17,3.892.638.638,0,0,0,.066,0h15.23a.625.625,0,0,0,.491.238h2.5A.623.623,0,0,0,32,66.3V57.347A.623.623,0,0,0,31.375,56.726Zm-3.125,8.71H13.375A12.056,12.056,0,1,1,25.5,53.38a12.009,12.009,0,0,1-.49,3.406.616.616,0,0,0-.025.178H23.25a.621.621,0,1,0,0,1.243h5Zm2.5.238H29.5V57.969h1.25Z" transform="translate(0 -40.082)"/><g transform="translate(6.5 6.463)"><path class="a" d="M116.853,147.545c-.007-.015-.015-.031-.024-.046s-.021-.035-.033-.051a6.836,6.836,0,1,0,.009,6.922c.008-.012.016-.023.024-.035s.016-.03.024-.046a6.79,6.79,0,0,0,0-6.745ZM111.5,145.36a5.633,5.633,0,0,1,3.9,2.242l-3.081,1.769a2.129,2.129,0,0,0-.82-.472Zm-1.25,0V148.9a2.128,2.128,0,0,0-.82.472l-3.082-1.769A5.633,5.633,0,0,1,110.25,145.36Zm-4.528,7.8a5.557,5.557,0,0,1,0-4.481l3.082,1.769a2.084,2.084,0,0,0,0,.943Zm4.528,3.317a5.633,5.633,0,0,1-3.9-2.242l3.081-1.769a2.129,2.129,0,0,0,.82.472Zm.625-4.688a.87.87,0,1,1,.875-.87A.873.873,0,0,1,110.875,151.788Zm.625,4.688v-3.539a2.128,2.128,0,0,0,.82-.472l3.081,1.769A5.633,5.633,0,0,1,111.5,156.476Zm4.528-3.317-3.082-1.769a2.084,2.084,0,0,0,0-.943l3.082-1.769a5.557,5.557,0,0,1,0,4.481Z" transform="translate(-104 -144.082)"/></g><g transform="translate(3.315 16.657)"><path class="a" d="M61.419,314.2a9.573,9.573,0,0,1-7.181-5.684.624.624,0,0,0-1.151.486,10.875,10.875,0,0,0,8.115,6.422.635.635,0,0,0,.109.009.621.621,0,0,0,.108-1.234Z" transform="translate(-53.038 -308.135)"/></g><g transform="translate(2.69 14.621)"><path class="a" d="M44.283,275.924l-.011-.054a.625.625,0,0,0-1.227.237l.012.058a.625.625,0,0,0,1.226-.241Z" transform="translate(-43.034 -275.367)"/></g><g transform="translate(20.438 16.882)"><path class="a" d="M328.067,311.934a.627.627,0,0,0-.884,0,.619.619,0,0,0,0,.879.627.627,0,0,0,.884,0,.618.618,0,0,0,0-.879Z" transform="translate(-327 -311.752)"/></g></svg>